{"accessors" : [{"bufferView" : 0, "byteOffset" : 0, "componentType" : 5123, "count" : 5760, "type" : "SCALAR", "max" : [4863], "min" : [0]}, {"bufferView" : 1, "byteOffset" : 0, "componentType" : 5126, "count" : 4864, "type" : "VEC3", "max" : [8.517155647277832, 8.517156600952148, 8.517154693603516], "min" : [-8.5171537399292, -8.517156600952148, -8.517156600952148], "name" : "POSITION"}, {"bufferView" : 1, "byteOffset" : 12, "componentType" : 5126, "count" : 4864, "type" : "VEC2", "max" : [0.9713320136070251, -0.028667999431490898], "min" : [0.028667999431490898, -0.971331000328064], "name" : "TEXCOORD_0"}, {"bufferView" : 1, "byteOffset" : 20, "componentType" : 5126, "count" : 4864, "type" : "VEC3", "max" : [1.0000044107437134, 1.0000044107437134, 1.0000044107437134], "min" : [-1.0000044107437134, -1.0000044107437134, -1.0000044107437134], "name" : "NORMAL"}], "asset" : {"generator" : "Aspose.3D 22.7", "version" : "2.0"}, "buffers" : [{"uri" : "data:application/octet-stream;base64,", "byteLength" : 195848}], "bufferViews" : [{"buffer" : 0, "byteOffset" : 0, "byteLength" : 11520, "target" : 34963}, {"buffer" : 0, "byteOffset" : 11524, "byteLength" : 184320, "byteStride" : 32, "target" : 34962}], "meshes" : [{"primitives" : [{"attributes" : {"POSITION" : 1, "TEXCOORD_0" : 2, "NORMAL" : 3}, "indices" : 0, "mode" : 4}], "name" : ""}], "nodes" : [{"mesh" : 0, "name" : "Sphere_Sphere.001"}], "scene" : 0, "scenes" : [{"nodes" : [0]}]}