{"accessors" : [{"bufferView" : 0, "byteOffset" : 0, "componentType" : 5125, "count" : 80706, "type" : "SCALAR", "max" : [65673], "min" : [0]}, {"bufferView" : 1, "byteOffset" : 0, "componentType" : 5126, "count" : 65674, "type" : "VEC3", "max" : [8.447883605957031, 8.449999809265137, 8.446600914001465], "min" : [-8.447883605957031, -8.449999809265137, -8.449995994567871], "name" : "POSITION"}, {"bufferView" : 1, "byteOffset" : 12, "componentType" : 5126, "count" : 65674, "type" : "VEC3", "max" : [0.9995730519294739, 1.0000042915344238, 1.0000044107437134], "min" : [-1.0000044107437134, -1.0000044107437134, -0.9997754096984863], "name" : "NORMAL"}], "asset" : {"generator" : "Aspose.3D 22.7", "version" : "2.0"}, "buffers" : [{"uri" : "data:application/octet-stream;base64,", "byteLength" : 2259776}], "bufferViews" : [{"buffer" : 0, "byteOffset" : 0, "byteLength" : 322824, "target" : 34963}, {"buffer" : 0, "byteOffset" : 322828, "byteLength" : 1936944, "byteStride" : 24, "target" : 34962}], "meshes" : [{"primitives" : [{"attributes" : {"POSITION" : 1, "NORMAL" : 2}, "indices" : 0, "mode" : 4}], "name" : ""}], "nodes" : [{"mesh" : 0, "name" : "logo_v4"}], "scene" : 0, "scenes" : [{"nodes" : [0]}]}